<?xml version="1.0" encoding="UTF-8"?>
<!-- Generator: visioncortex VTracer 0.6.3 -->
<svg version="1.1" xmlns="http://www.w3.org/2000/svg" width="1280" height="1280">
<path d="M0 0 C0.83 0.06 1.66 0.12 2.52 0.18 C14.81 1.09 26.68 2.89 38.72 5.51 C42.14 6.24 45.57 6.9 49 7.56 C58.53 9.47 67.84 11.75 77 15 C78.5 15.52 78.5 15.52 80.04 16.05 C98.35 22.49 116.43 29.27 133.11 39.32 C136.01 41.01 138.97 42.48 142 43.94 C147.32 46.55 152.14 49.62 157.02 52.97 C160.94 55.64 164.97 58.1 169.02 60.55 C169.67 61.03 170.33 61.51 171 62 C171 62.66 171 63.32 171 64 C171.56 64.27 172.12 64.54 172.7 64.81 C175.16 66.08 177.44 67.49 179.75 69 C180.55 69.52 181.35 70.03 182.17 70.56 C182.78 71.04 183.38 71.51 184 72 C184 72.66 184 73.32 184 74 C184.8 74.37 184.8 74.37 185.62 74.75 C188.58 76.31 191.3 78.03 194 80 C194 80.66 194 81.32 194 82 C194.54 82.23 195.07 82.45 195.62 82.69 C199.85 85.02 203.85 88.32 207 92 C207 92.66 207 93.32 207 94 C207.54 94.21 208.07 94.41 208.62 94.62 C211.92 96.53 214.59 99.05 217 102 C217 102.66 217 103.32 217 104 C217.66 104 218.32 104 219 104 C220.62 105.37 220.62 105.37 222 107 C222 107.66 222 108.32 222 109 C222.66 109 223.32 109 224 109 C229 114.48 229 114.48 229 117 C229.66 117 230.32 117 231 117 C232.59 118.73 232.59 118.73 234.5 121.19 C235.21 122.1 235.92 123.01 236.66 123.95 C237.43 124.96 238.2 125.96 239 127 C239.82 128.06 240.65 129.11 241.47 130.17 C244 133.43 246.5 136.71 249 140 C249.8 141.05 250.59 142.09 251.41 143.17 C252.14 144.14 252.87 145.12 253.62 146.12 C254.28 146.99 254.93 147.86 255.6 148.76 C257 151 257 151 257 154 C257.66 154 258.32 154 259 154 C259.54 154.95 260.07 155.9 260.62 156.88 C261.91 159.14 263.23 161.37 264.6 163.59 C265.15 164.47 265.69 165.34 266.25 166.25 C266.77 167.08 267.29 167.91 267.83 168.77 C269 171 269 171 269 174 C269.66 174 270.32 174 271 174 C271.44 174.87 271.87 175.74 272.32 176.64 C272.61 177.21 272.89 177.78 273.18 178.37 C273.82 179.64 274.45 180.9 275.08 182.17 C276.6 185.2 278.12 188.23 279.66 191.25 C282.4 196.63 284.9 202.01 287.07 207.64 C287.97 209.93 288.97 212.15 290 214.38 C292.02 218.86 293.55 223.46 295.06 228.14 C295.85 230.55 296.7 232.9 297.62 235.25 C298.8 238.47 299.69 241.55 300.47 244.87 C301.06 247.26 301.77 249.59 302.5 251.94 C304.85 259.7 306.3 267.49 307.54 275.5 C307.88 277.99 307.88 277.99 309 280 C314.52 313.86 317.73 351.08 310.43 384.87 C309.9 387.48 309.73 390.03 309.62 392.69 C309.19 398.9 307.61 404.61 305.91 410.57 C305.19 413.29 304.66 415.78 304.38 418.56 C303.91 422.81 302.68 426.4 301.02 430.32 C299.97 433.09 299.28 435.8 298.62 438.69 C297.46 443.48 295.95 447.89 294.04 452.43 C292.88 455.29 291.94 458.19 291 461.12 C289.64 465.29 288.12 469.14 286.03 472.99 C284.85 475.3 283.85 477.66 282.84 480.05 C281.34 483.52 279.73 486.95 278.12 490.38 C277.78 491.12 277.43 491.86 277.07 492.63 C274.58 497.88 271.92 502.98 269 508 C268.34 508 267.68 508 267 508 C266.67 509.65 266.34 511.3 266 513 C265.34 513 264.68 513 264 513 C263.89 513.56 263.78 514.13 263.67 514.71 C259.4 529.26 244.68 544.36 234.93 555.71 C232.89 558.05 232.89 558.05 231 561 C230.34 561 229.68 561 229 561 C229 561.66 229 562.32 229 563 C228.34 563 227.68 563 227 563 C226.66 563.81 226.66 563.81 226.32 564.64 C224.6 567.72 222.33 570.14 219.94 572.69 C219.2 573.48 219.2 573.48 218.46 574.28 C205.71 587.93 205.71 587.93 199 593 C198.34 593 197.68 593 197 593 C196.67 593.99 196.34 594.98 196 596 C195.34 596 194.68 596 194 596 C194 596.66 194 597.32 194 598 C191.91 599.8 189.82 601.47 187.62 603.12 C187.02 603.59 186.42 604.06 185.8 604.54 C181.26 608 181.26 608 179 608 C179 608.66 179 609.32 179 610 C178.34 610 177.68 610 177 610 C177 610.66 177 611.32 177 612 C177.52 612.1 178.03 612.21 178.56 612.31 C181.17 613.05 183.56 614.1 186.04 615.19 C188.02 616.01 190.01 616.67 192.06 617.31 C202.39 620.68 212.27 625.5 222.09 630.11 C224.29 631.13 226.49 632.15 228.69 633.17 C236.23 636.68 243.65 640.16 250.69 644.61 C253.35 646.21 256.08 647.53 258.88 648.88 C274.71 656.69 288.9 667.26 295.81 684 C298.59 692.44 299.46 700.24 298 709 C297.87 709.84 297.75 710.67 297.62 711.53 C295.97 721.15 291.76 730.12 286 738 C285.34 738 284.68 738 284 738 C283.63 738.87 283.63 738.87 283.25 739.76 C278.45 748.39 268.09 753.35 259.39 757.14 C244.38 760.96 228.85 758.7 215.65 751.06 C213.5 749.76 211.37 748.43 209.27 747.06 C195.6 738.43 180.85 731.16 166.16 724.46 C163.65 723.3 161.2 722.09 158.75 720.81 C154.83 718.81 150.73 717.39 146.58 715.93 C144.56 715.2 142.59 714.37 140.62 713.5 C136.25 711.69 131.79 710.39 127.25 709.04 C124.46 708.15 121.82 707.15 119.12 706 C111.27 702.76 102.92 700.97 94.69 698.93 C93.98 698.75 93.27 698.58 92.54 698.39 C90.55 697.9 88.55 697.42 86.56 696.93 C83 696 83 696 79.8 694.91 C77.34 694.11 75.31 693.7 72.75 693.5 C66.45 692.9 60.34 691.66 54.25 689.94 C49.28 688.63 44.19 688.52 39.07 688.25 C36 688 36 688 33 687 C31.62 686.83 30.23 686.7 28.83 686.6 C27.57 686.5 27.57 686.5 26.29 686.4 C25.37 686.34 24.46 686.28 23.52 686.21 C22.57 686.14 21.63 686.07 20.65 686 C17.56 685.79 14.47 685.58 11.38 685.38 C10.32 685.31 9.27 685.24 8.19 685.16 C-6.27 684.23 -20.46 683.62 -34.93 684.76 C-38.55 685.04 -42.17 685.27 -45.8 685.49 C-50.91 685.81 -56.03 686.14 -61.14 686.5 C-62.18 686.57 -63.21 686.64 -64.28 686.72 C-66.63 686.96 -68.72 687.4 -71 688 C-74.46 688.27 -77.93 688.44 -81.39 688.62 C-85.14 689.01 -88.39 689.95 -92 691 C-96 691.74 -100.03 692.28 -104.06 692.86 C-108.58 693.53 -112.68 694.46 -117 696 C-119.33 696.34 -121.66 696.68 -124 697 C-124.33 697.33 -124.66 697.66 -125 698 C-126.33 698.33 -127.66 698.61 -129 698.88 C-132.98 699.72 -136.74 700.85 -140.57 702.22 C-142.56 702.86 -144.59 703.39 -146.62 703.88 C-151.65 705.12 -156.53 706.73 -161.44 708.38 C-162.33 708.67 -163.22 708.96 -164.13 709.26 C-169.25 710.96 -174.17 712.87 -179.07 715.12 C-181.29 716.13 -183.54 717.05 -185.81 717.94 C-187.54 718.62 -189.27 719.31 -191 720 C-191.87 720.35 -192.74 720.69 -193.63 721.05 C-207.51 726.69 -220.91 733.04 -233.64 740.94 C-236.65 742.79 -239.69 744.48 -242.81 746.12 C-247.48 748.61 -251.68 751.51 -255.91 754.68 C-258 756 -258 756 -261 756 C-261 756.66 -261 757.32 -261 758 C-261.97 758.53 -262.95 759.06 -263.95 759.61 C-268.46 762.19 -272.62 765.19 -276.81 768.25 C-278 769.11 -278 769.11 -279.21 769.98 C-284.36 773.74 -289.37 777.6 -294.25 781.71 C-296 783 -296 783 -298 783 C-298.33 783.99 -298.66 784.98 -299 786 C-299.66 786 -300.32 786 -301 786 C-301 786.66 -301 787.32 -301 788 C-303.12 789.95 -303.12 789.95 -305.88 792.12 C-306.78 792.85 -307.68 793.57 -308.62 794.32 C-311 796 -311 796 -313 796 C-313 796.66 -313 797.32 -313 798 C-314.37 799.62 -314.37 799.62 -316 801 C-316.66 801 -317.32 801 -318 801 C-318 801.66 -318 802.32 -318 803 C-319.36 804.34 -319.36 804.34 -321.31 805.94 C-324.94 809.02 -328.38 812.26 -331.75 815.62 C-333.1 816.97 -333.1 816.97 -334.48 818.35 C-337.04 820.95 -337.04 820.95 -339.2 823.84 C-340.09 824.91 -340.09 824.91 -341 826 C-341.66 826 -342.32 826 -343 826 C-343.37 826.84 -343.37 826.84 -343.75 827.69 C-345.23 830.42 -346.93 832.68 -349 835 C-349.66 835 -350.32 835 -351 835 C-351.4 835.87 -351.4 835.87 -351.81 836.75 C-353.03 839.06 -354.3 841.02 -356 843 C-356.66 843 -357.32 843 -358 843 C-358.37 843.8 -358.37 843.8 -358.75 844.62 C-360.31 847.58 -362.03 850.3 -364 853 C-364.66 853 -365.32 853 -366 853 C-366.32 853.99 -366.32 853.99 -366.64 855.01 C-368.49 859.07 -371.09 862.35 -373.81 865.88 C-374.86 867.25 -375.91 868.62 -376.96 869.99 C-377.47 870.66 -377.98 871.33 -378.5 872.02 C-381.94 876.57 -385.14 881.13 -387.91 886.13 C-389.14 888.24 -390.5 890.24 -391.88 892.25 C-394.71 896.45 -397.13 900.8 -399.51 905.27 C-400.89 907.8 -402.35 910.24 -403.88 912.69 C-409.43 921.85 -414.22 931.56 -418 941.58 C-419.2 944.48 -420.62 947.22 -422.06 950 C-424.4 954.57 -426.09 958.98 -427.36 963.94 C-428 966 -428 966 -430 969 C-430.69 971.05 -431.33 973.11 -431.94 975.19 C-433.25 979.58 -434.65 983.87 -436.29 988.14 C-439.4 996.27 -441.48 1004.62 -443.53 1013.06 C-444.19 1015.78 -444.88 1018.48 -445.56 1021.19 C-446.04 1023.12 -446.52 1025.06 -447 1027 C-447.27 1028.08 -447.54 1029.16 -447.82 1030.28 C-449.25 1036.22 -450.37 1041.97 -450.79 1048.07 C-451 1050 -451 1050 -452 1052 C-452.37 1054.81 -452.7 1057.62 -453 1060.44 C-453.87 1068.6 -453.87 1068.6 -455 1072 C-455.13 1073.41 -455.22 1074.82 -455.28 1076.24 C-455.32 1077.06 -455.36 1077.88 -455.39 1078.72 C-455.43 1079.58 -455.46 1080.43 -455.5 1081.31 C-455.57 1083 -455.64 1084.68 -455.72 1086.36 C-455.75 1087.11 -455.78 1087.85 -455.81 1088.62 C-456 1091 -456 1091 -456.5 1093.78 C-457.09 1097.6 -457.17 1101.36 -457.21 1105.22 C-457.24 1106.83 -457.27 1108.44 -457.3 1110.04 C-457.34 1112.54 -457.37 1115.04 -457.4 1117.54 C-457.69 1142.46 -457.69 1142.46 -464.06 1153.12 C-464.57 1153.99 -465.08 1154.86 -465.6 1155.76 C-466.7 1157.52 -467.84 1159.27 -469 1161 C-469.66 1161 -470.32 1161 -471 1161 C-471.24 1161.58 -471.47 1162.16 -471.72 1162.75 C-476.5 1171.13 -487.7 1176.55 -496.66 1179 C-512.47 1182.64 -528.49 1181.24 -542.62 1172.88 C-544.09 1171.93 -545.55 1170.98 -547 1170 C-547.99 1169.34 -548.98 1168.68 -550 1168 C-550 1167.34 -550 1166.68 -550 1166 C-550.66 1166 -551.32 1166 -552 1166 C-553.95 1163.92 -553.95 1163.92 -556.12 1161.19 C-557.21 1159.85 -557.21 1159.85 -558.32 1158.48 C-560 1156 -560 1156 -560 1153 C-560.66 1153 -561.32 1153 -562 1153 C-567.31 1140.61 -567.72 1129.39 -567.5 1116.06 C-567.48 1114.03 -567.47 1112 -567.45 1109.96 C-567.02 1071.61 -567.02 1071.61 -563 1056 C-562.87 1054.15 -562.77 1052.29 -562.69 1050.44 C-562.23 1043.76 -560.95 1037.4 -559.46 1030.89 C-558.59 1027.05 -557.88 1023.29 -557.49 1019.37 C-557.09 1015.38 -556.23 1011.68 -555.12 1007.81 C-553.42 1001.7 -552.01 995.57 -550.71 989.35 C-549.14 981.99 -547.36 974.73 -544.88 967.62 C-544.16 965.46 -543.47 963.31 -542.8 961.13 C-542.59 960.43 -542.38 959.73 -542.15 959.01 C-541.73 957.62 -541.31 956.24 -540.89 954.85 C-539.53 950.42 -537.83 946.26 -536 942 C-535.32 939.86 -534.68 937.72 -534.06 935.56 C-532.72 931.09 -531.2 927.1 -528.99 923 C-527.83 920.66 -526.99 918.28 -526.12 915.81 C-522.9 906.68 -518.6 898.01 -514.18 889.41 C-513.28 887.58 -512.46 885.71 -511.67 883.83 C-509.68 879.13 -507.31 874.64 -504.94 870.12 C-504.46 869.21 -503.97 868.29 -503.48 867.34 C-497.63 856.3 -491.52 845.31 -484.35 835.05 C-482.81 832.71 -481.46 830.28 -480.08 827.85 C-478.34 824.86 -476.43 821.99 -474.5 819.12 C-474.08 818.5 -473.66 817.87 -473.22 817.22 C-471.82 815.14 -470.41 813.07 -469 811 C-468.21 809.84 -468.21 809.84 -467.4 808.65 C-465.77 806.28 -464.14 803.92 -462.5 801.56 C-461.98 800.81 -461.47 800.06 -460.94 799.28 C-460.45 798.59 -459.97 797.9 -459.47 797.19 C-458.83 796.27 -458.83 796.27 -458.17 795.32 C-457.78 794.89 -457.4 794.45 -457 794 C-456.34 794 -455.68 794 -455 794 C-454.63 793.2 -454.63 793.2 -454.25 792.38 C-452.69 789.42 -450.97 786.7 -449 784 C-448.34 784 -447.68 784 -447 784 C-446.73 783.26 -446.46 782.51 -446.19 781.75 C-445.05 779.11 -443.91 777.14 -442 775 C-441.34 775 -440.68 775 -440 775 C-439.64 774.19 -439.64 774.19 -439.28 773.36 C-437.66 770.37 -435.65 767.89 -433.5 765.25 C-432.31 763.77 -432.31 763.77 -431.09 762.27 C-430.06 761.14 -430.06 761.14 -429 760 C-428.34 760 -427.68 760 -427 760 C-426.6 759.13 -426.6 759.13 -426.19 758.25 C-424.97 755.94 -423.7 753.98 -422 752 C-421.34 752 -420.68 752 -420 752 C-419.67 751.01 -419.34 750.02 -419 749 C-418.34 749 -417.68 749 -417 749 C-417 748.34 -417 747.68 -417 747 C-416.34 747 -415.68 747 -415 747 C-414.67 746.01 -414.34 745.02 -414 744 C-413.34 744 -412.68 744 -412 744 C-412 743.34 -412 742.68 -412 742 C-411.34 742 -410.68 742 -410 742 C-409.67 741.01 -409.34 740.02 -409 739 C-408.34 739 -407.68 739 -407 739 C-406.6 738.04 -406.6 738.04 -406.19 737.06 C-405 735 -405 735 -402 734 C-402 733.34 -402 732.68 -402 732 C-401.34 732 -400.68 732 -400 732 C-399.67 731.01 -399.34 730.02 -399 729 C-398.34 729 -397.68 729 -397 729 C-397 728.34 -397 727.68 -397 727 C-396.34 727 -395.68 727 -395 727 C-394.67 726.01 -394.34 725.02 -394 724 C-393.34 724 -392.68 724 -392 724 C-392 723.34 -392 722.68 -392 722 C-390.3 720.48 -388.54 719.03 -386.75 717.62 C-383.95 715.41 -381.26 713.27 -378.77 710.71 C-377 709 -377 709 -375 709 C-375 708.34 -375 707.68 -375 707 C-373.32 705.48 -371.58 704.03 -369.81 702.62 C-368.85 701.85 -367.89 701.08 -366.89 700.29 C-365.94 699.53 -364.98 698.78 -364 698 C-363.1 697.24 -362.19 696.49 -361.26 695.71 C-359 694 -359 694 -357 694 C-357 693.34 -357 692.68 -357 692 C-355.26 690.55 -353.46 689.19 -351.62 687.88 C-350.63 687.15 -349.63 686.43 -348.6 685.68 C-346 684 -346 684 -344 684 C-344 683.34 -344 682.68 -344 682 C-339.62 679 -339.62 679 -337 679 C-337 678.34 -337 677.68 -337 677 C-336.11 676.53 -335.23 676.05 -334.31 675.56 C-330.57 673.43 -327.03 671.02 -323.5 668.56 C-322.65 667.97 -322.65 667.97 -321.78 667.37 C-318.78 665.27 -315.81 663.13 -312.88 660.94 C-310 659 -310 659 -307 659 C-307 658.34 -307 657.68 -307 657 C-306.07 656.51 -306.07 656.51 -305.12 656 C-298.73 652.57 -292.49 648.94 -286.3 645.16 C-276.18 639 -276.18 639 -272 639 C-272 638.34 -272 637.68 -272 637 C-269.5 635.72 -267 634.45 -264.5 633.19 C-263.46 632.65 -263.46 632.65 -262.39 632.11 C-258.87 630.33 -255.38 628.71 -251.68 627.36 C-248.5 626.19 -245.88 624.78 -242.99 623.04 C-239.68 621.31 -236.17 620.15 -232.65 618.93 C-230.07 618.02 -227.53 617.03 -225 616 C-225 615.34 -225 614.68 -225 614 C-225.66 613.67 -226.32 613.34 -227 613 C-227 612.34 -227 611.68 -227 611 C-227.89 610.58 -227.89 610.58 -228.79 610.15 C-235.97 606.42 -242 600.5 -248.08 595.23 C-248.94 594.47 -248.94 594.47 -249.83 593.71 C-250.38 593.23 -250.92 592.76 -251.49 592.27 C-252.75 591.21 -254.08 590.22 -255.42 589.26 C-255.94 588.85 -256.46 588.43 -257 588 C-257 587.34 -257 586.68 -257 586 C-257.99 585.67 -258.98 585.34 -260 585 C-260 584.34 -260 583.68 -260 583 C-260.66 583 -261.32 583 -262 583 C-262 582.34 -262 581.68 -262 581 C-262.58 580.75 -263.15 580.5 -263.75 580.25 C-266.33 578.82 -268.06 577.22 -270 575 C-270 574.34 -270 573.68 -270 573 C-270.66 573 -271.32 573 -272 573 C-272 572.34 -272 571.68 -272 571 C-272.99 570.67 -273.98 570.34 -275 570 C-275 569.34 -275 568.68 -275 568 C-275.66 568 -276.32 568 -277 568 C-278.56 566.31 -280.05 564.54 -281.5 562.75 C-282.29 561.78 -283.09 560.8 -283.91 559.8 C-285.59 557.55 -286.88 555.55 -288 553 C-288.66 553 -289.32 553 -290 553 C-290.66 551.35 -291.32 549.7 -292 548 C-292.66 548 -293.32 548 -294 548 C-295.59 546.01 -297.05 544.03 -298.5 541.94 C-298.94 541.31 -299.38 540.69 -299.83 540.04 C-306.9 529.91 -313.77 519.67 -320 509 C-320.53 508.14 -321.06 507.28 -321.6 506.39 C-326.7 497.97 -330.84 489.17 -334.96 480.23 C-335.88 478.25 -336.82 476.28 -337.77 474.31 C-340.65 468.25 -343.05 462.23 -345.07 455.82 C-345.94 453.19 -346.93 450.68 -348 448.12 C-350.54 441.91 -352.24 435.47 -354 429 C-354.28 428.01 -354.56 427.03 -354.85 426.01 C-356.27 420.95 -357.5 415.9 -358.47 410.74 C-358.85 408.79 -359.25 406.85 -359.68 404.92 C-364.19 384.1 -365.48 363.31 -365.34 342.05 C-365.31 338.21 -365.32 334.38 -365.32 330.54 C-365.32 328.05 -365.31 325.57 -365.3 323.08 C-365.3 321.95 -365.3 320.83 -365.3 319.67 C-365.24 312.9 -364.6 306.43 -363.46 299.75 C-362.77 295.63 -362.56 291.53 -362.34 287.36 C-361.45 278.59 -359.11 269.99 -357.06 261.44 C-356.81 260.37 -356.56 259.29 -356.3 258.19 C-354.47 250.55 -352.24 243.21 -349.44 235.88 C-348.08 232.3 -347.04 228.68 -346 225 C-343.41 216.28 -339.91 208.18 -335.96 200.02 C-334.98 197.95 -334.03 195.88 -333.09 193.79 C-329.23 185.32 -324.99 177.28 -320.08 169.37 C-318.66 167.07 -317.29 164.77 -315.96 162.42 C-312.91 157.1 -309.44 152.08 -306 147 C-305.18 145.78 -304.37 144.56 -303.55 143.34 C-302.74 142.14 -301.93 140.94 -301.12 139.75 C-300.74 139.18 -300.36 138.6 -299.97 138.01 C-299.03 136.64 -298.02 135.31 -297 134 C-296.34 134 -295.68 134 -295 134 C-294.63 133.2 -294.63 133.2 -294.25 132.38 C-292.69 129.42 -290.97 126.7 -289 124 C-288.34 124 -287.68 124 -287 124 C-286.63 123.17 -286.63 123.17 -286.25 122.32 C-284.78 119.59 -283.01 117.34 -281.06 114.94 C-280.03 113.65 -280.03 113.65 -278.97 112.34 C-275.76 108.53 -275.76 108.53 -274 107 C-273.34 107 -272.68 107 -272 107 C-271.73 106.36 -271.46 105.72 -271.19 105.06 C-270 103 -270 103 -267 102 C-266.67 101.34 -266.34 100.68 -266 100 C-265 98 -265 98 -262 97 C-261.67 96.34 -261.34 95.68 -261 95 C-260 93 -260 93 -257 92 C-257 91.34 -257 90.68 -257 90 C-255.71 88.66 -255.71 88.66 -253.81 87.06 C-253.09 86.45 -252.36 85.83 -251.62 85.2 C-250.75 84.47 -249.89 83.75 -249 83 C-247.94 82.09 -246.88 81.18 -245.82 80.27 C-230.35 67 -230.35 67 -227 67 C-227 66.34 -227 65.68 -227 65 C-224.87 63.48 -224.87 63.48 -222 61.75 C-218.46 59.57 -215.04 57.36 -211.75 54.81 C-208.91 52.64 -206.03 50.77 -202.89 49.05 C-200.69 47.83 -198.57 46.51 -196.44 45.19 C-191.17 42.01 -185.72 39.3 -180.2 36.61 C-177.05 35.08 -177.05 35.08 -174.36 33.41 C-172.1 32.06 -169.96 31.11 -167.5 30.19 C-163.5 28.64 -159.63 26.91 -155.75 25.06 C-145.61 20.34 -135.16 16.93 -124.39 13.96 C-121.27 13.08 -118.21 12.08 -115.12 11.06 C-104.96 7.9 -94.44 6.03 -84 4 C-82.6 3.73 -82.6 3.73 -81.16 3.44 C-75.1 2.3 -69.08 1.48 -62.94 0.94 C-62.04 0.86 -61.13 0.77 -60.2 0.69 C-40.07 -1.1 -20.17 -1.46 0 0 Z M-66 112 C-67.28 112.12 -68.56 112.25 -69.88 112.38 C-78.02 113.21 -85.88 115.5 -93.59 118.19 C-96.56 119.19 -99.56 120.05 -102.56 120.94 C-106.99 122.29 -111 123.82 -115.07 126.01 C-117.21 127.11 -119.38 127.96 -121.62 128.81 C-128.31 131.41 -134.63 134.73 -141 138 C-141 138.66 -141 139.32 -141 140 C-142.65 140.33 -144.3 140.66 -146 141 C-146 141.66 -146 142.32 -146 143 C-146.54 143.09 -147.08 143.19 -147.64 143.29 C-150.7 144.21 -153.06 145.72 -155.75 147.44 C-156.73 148.05 -157.72 148.67 -158.73 149.31 C-159.48 149.87 -160.23 150.42 -161 151 C-161 151.66 -161 152.32 -161 153 C-161.66 153.21 -162.32 153.41 -163 153.62 C-167.07 155.49 -170.69 157.98 -174 161 C-174 161.66 -174 162.32 -174 163 C-174.84 163.37 -174.84 163.37 -175.69 163.75 C-178.42 165.23 -180.68 166.93 -183 169 C-183 169.66 -183 170.32 -183 171 C-183.54 171.21 -184.07 171.41 -184.62 171.62 C-187.92 173.53 -190.59 176.05 -193 179 C-193 179.66 -193 180.32 -193 181 C-193.99 181.33 -194.98 181.66 -196 182 C-199.64 185.48 -199.64 185.48 -201 190 C-201.66 190 -202.32 190 -203 190 C-204.69 191.27 -204.69 191.27 -206 193 C-206 193.99 -206 194.98 -206 196 C-206.66 196 -207.32 196 -208 196 C-209.4 197.63 -209.4 197.63 -210.79 199.77 C-211.34 200.57 -211.88 201.37 -212.44 202.2 C-213.31 203.49 -213.31 203.49 -214.19 204.81 C-214.77 205.68 -215.36 206.55 -215.96 207.44 C-220.08 213.56 -224.14 219.71 -228 226 C-228.52 226.85 -229.05 227.7 -229.59 228.58 C-231.02 231.03 -232.12 233.53 -233.2 236.15 C-233.98 237.95 -234.9 239.7 -235.81 241.44 C-241 251.68 -244.56 263.07 -248 274 C-248.23 274.7 -248.47 275.4 -248.71 276.12 C-250.9 282.97 -252.08 289.83 -253.12 296.94 C-253.46 299.16 -253.79 301.37 -254.13 303.59 C-254.28 304.56 -254.42 305.53 -254.57 306.52 C-255 309 -255 309 -256 312 C-256.11 313.62 -256.17 315.23 -256.19 316.85 C-256.22 318.34 -256.22 318.34 -256.24 319.86 C-256.25 320.93 -256.26 322.01 -256.27 323.12 C-256.29 324.24 -256.3 325.36 -256.31 326.51 C-256.34 330.16 -256.36 333.8 -256.38 337.44 C-256.38 338.67 -256.38 339.9 -256.39 341.16 C-256.41 359.3 -255.72 376.4 -251 394 C-250.74 394.99 -250.48 395.98 -250.21 397 C-248.96 401.67 -247.65 406.22 -245.88 410.72 C-244.72 413.73 -243.68 416.77 -242.62 419.81 C-240.4 426.05 -237.88 432.04 -235 438 C-234.25 439.58 -234.25 439.58 -233.48 441.2 C-230.13 448.08 -226.52 454.76 -222.69 461.38 C-222.25 462.13 -221.82 462.89 -221.38 463.67 C-220.31 465.48 -219.16 467.25 -218 469 C-217.34 469 -216.68 469 -216 469 C-216 469.99 -216 470.98 -216 472 C-215.34 472 -214.68 472 -214 472 C-213.69 472.78 -213.38 473.57 -213.06 474.38 C-212.07 476.92 -212.07 476.92 -211 479 C-210.34 479 -209.68 479 -209 479 C-208.76 479.55 -208.51 480.1 -208.26 480.67 C-205.59 485.6 -201.6 489.73 -198 494 C-197.08 495.11 -197.08 495.11 -196.13 496.25 C-192.64 500.37 -188.93 503.98 -184.8 507.46 C-183 509 -183 509 -181.39 510.7 C-180.07 512.23 -180.07 512.23 -178 512 C-178 512.66 -178 513.32 -178 514 C-175.25 516.61 -172.05 518.75 -169 521 C-168.34 521.49 -167.68 521.98 -167 522.49 C-157.95 529.2 -148.93 535.63 -139 541 C-137.77 541.68 -136.55 542.37 -135.32 543.05 C-128.84 546.63 -122.5 549.78 -115.46 552.14 C-113.11 552.96 -110.93 553.93 -108.69 555 C-103.59 557.35 -98.24 558.72 -92.84 560.17 C-90 561 -90 561 -89 562 C-87.55 562.35 -86.1 562.66 -84.63 562.94 C-83.3 563.2 -83.3 563.2 -81.95 563.46 C-81.02 563.64 -80.09 563.82 -79.12 564 C-77.29 564.35 -75.46 564.71 -73.63 565.06 C-72.82 565.22 -72 565.37 -71.16 565.54 C-69 566 -69 566 -66 567 C-64 567.2 -62 567.36 -60 567.5 C-56.73 567.72 -54.12 567.96 -51 569 C-49.37 569.09 -47.75 569.13 -46.12 569.13 C-45.13 569.13 -44.13 569.14 -43.11 569.14 C-42.04 569.14 -40.98 569.13 -39.88 569.13 C-38.23 569.13 -38.23 569.13 -36.55 569.14 C-34.22 569.14 -31.9 569.13 -29.58 569.13 C-26.01 569.13 -22.45 569.13 -18.89 569.14 C-16.64 569.14 -14.38 569.13 -12.12 569.13 C-10.52 569.14 -10.52 569.14 -8.89 569.14 C-7.4 569.13 -7.4 569.13 -5.88 569.13 C-5.01 569.13 -4.14 569.13 -3.24 569.13 C-0.83 569.09 -0.83 569.09 2 568 C3.73 567.87 5.46 567.77 7.19 567.69 C13.11 567.25 18.59 566.01 24.3 564.46 C27.43 563.62 30.45 562.94 33.67 562.5 C36.77 562.03 39.14 561.31 42 560.06 C44.79 558.86 47.45 557.87 50.38 557.04 C65.87 552.6 81.89 545.35 95 536 C96.93 534.74 98.87 533.49 100.81 532.25 C101.71 531.68 102.6 531.11 103.52 530.52 C105.64 529.22 107.76 528.07 110 527 C110 526.34 110 525.68 110 525 C110.54 524.75 111.07 524.5 111.62 524.25 C114.58 522.69 117.3 520.97 120 519 C120 518.34 120 517.68 120 517 C120.58 516.73 121.15 516.46 121.75 516.19 C124.06 514.97 126.02 513.7 128 512 C128 511.34 128 510.68 128 510 C128.59 509.74 129.18 509.47 129.78 509.2 C132.08 507.96 133.61 506.65 135.45 504.81 C136.07 504.2 136.69 503.58 137.33 502.95 C138.28 501.98 138.28 501.98 139.25 501 C139.9 500.36 140.55 499.72 141.22 499.05 C141.83 498.44 142.45 497.82 143.08 497.19 C143.92 496.34 143.92 496.34 144.78 495.48 C146.21 494.06 146.21 494.06 146 492 C146.66 492 147.32 492 148 492 C149.78 489.98 151.43 487.95 153.06 485.81 C153.55 485.18 154.04 484.55 154.55 483.9 C159.26 477.75 163.7 471.44 168 465 C168.62 464.09 169.23 463.17 169.87 462.23 C174.55 455.12 178.34 447.68 182 440 C182.79 438.35 182.79 438.35 183.6 436.68 C207.33 386.36 212.8 325 194.68 272.04 C194.09 270.27 193.57 268.48 193.06 266.69 C192.13 263.46 191.15 260.26 190.12 257.06 C189.82 256.1 189.51 255.15 189.2 254.16 C187.73 250.28 185.89 246.68 184 243 C183.38 241.74 182.76 240.48 182.14 239.21 C174.97 224.61 167.13 211.31 157.09 198.47 C156 197 156 197 155 195 C154.34 195 153.68 195 153 195 C152.6 194.14 152.6 194.14 152.19 193.27 C150.96 190.92 149.57 188.88 148 186.75 C147.48 186.04 146.97 185.34 146.44 184.61 C145.96 184.08 145.49 183.55 145 183 C144.34 183 143.68 183 143 183 C143 182.34 143 181.68 143 181 C142.34 181 141.68 181 141 181 C140.67 180.01 140.34 179.02 140 178 C139.34 178 138.68 178 138 178 C137.6 177.04 137.6 177.04 137.19 176.06 C136.11 173.67 136.11 173.67 133 173 C133 172.34 133 171.68 133 171 C131.67 169.33 131.67 169.33 130 168 C129.34 168 128.68 168 128 168 C128 167.34 128 166.68 128 166 C126.26 164.39 126.26 164.39 124 162.75 C123.18 162.13 122.36 161.51 121.51 160.87 C120.68 160.25 119.85 159.63 119 159 C117.6 157.96 116.21 156.92 114.81 155.88 C114.16 155.39 113.51 154.91 112.84 154.41 C111.15 153.11 109.54 151.77 107.94 150.38 C105.44 148.35 103 146.77 100.19 145.23 C97.2 143.55 94.29 141.74 91.38 139.94 C89.25 138.62 87.13 137.31 85 136 C84.14 135.46 83.27 134.92 82.38 134.37 C80.12 133.07 77.94 132.1 75.5 131.19 C71.47 129.63 67.59 127.87 63.69 126 C58.23 123.45 52.77 121.54 46.99 119.87 C44.44 119.13 41.94 118.31 39.44 117.44 C31.07 114.63 22.77 112.85 14 112 C13.34 111.67 12.68 111.34 12 111 C-9.28 107.32 -45.91 101.96 -66 112 Z " fill="#000000" transform="translate(639,50)"/>
<path d="M0 0 C15.31 8.95 26.37 21 31.23 38.4 C32.11 42.89 31.91 47.45 31.88 51.99 C31.88 53.13 31.88 54.26 31.88 55.43 C31.88 59.15 31.86 62.88 31.85 66.61 C31.84 69.2 31.84 71.79 31.84 74.38 C31.83 80.49 31.82 86.61 31.8 92.72 C31.77 99.68 31.76 106.64 31.75 113.61 C31.73 127.92 31.7 142.24 31.65 156.55 C32.24 156.55 32.83 156.55 33.43 156.54 C47.77 156.48 62.11 156.43 76.46 156.4 C83.39 156.38 90.33 156.36 97.26 156.32 C103.96 156.29 110.66 156.27 117.36 156.27 C119.91 156.26 122.46 156.25 125.01 156.23 C128.59 156.21 132.17 156.21 135.76 156.21 C136.8 156.2 137.85 156.19 138.92 156.18 C147.84 156.21 156.22 157.89 164.15 162.11 C165.34 162.73 165.34 162.73 166.56 163.37 C168.3 164.35 169.99 165.44 171.65 166.55 C171.65 167.21 171.65 167.87 171.65 168.55 C172.25 168.82 172.85 169.08 173.47 169.36 C182.36 174.22 187.56 186.55 190.71 195.57 C195.26 211.93 191.05 227.95 183.65 242.55 C182.99 242.55 182.33 242.55 181.65 242.55 C181.39 243.3 181.13 244.04 180.86 244.81 C176.9 253.8 167.31 258.88 158.65 262.55 C150.93 265.17 143.87 265.98 135.76 265.89 C134.62 265.89 133.49 265.89 132.32 265.89 C128.62 265.89 124.91 265.87 121.2 265.84 C118.62 265.84 116.03 265.83 113.45 265.83 C107.36 265.82 101.28 265.8 95.2 265.77 C88.26 265.73 81.33 265.72 74.39 265.7 C60.15 265.67 45.9 265.62 31.65 265.55 C31.66 266.13 31.66 266.72 31.66 267.32 C31.73 281.55 31.78 295.78 31.81 310.02 C31.82 316.9 31.84 323.78 31.88 330.66 C31.91 337.31 31.93 343.95 31.94 350.6 C31.94 353.13 31.95 355.66 31.97 358.2 C31.99 361.75 31.99 365.3 31.99 368.86 C32.01 370.42 32.01 370.42 32.03 372.01 C31.97 385.29 26.95 397.24 18.65 407.55 C17.99 407.55 17.33 407.55 16.65 407.55 C16.32 408.54 15.99 409.53 15.65 410.55 C14.99 410.55 14.33 410.55 13.65 410.55 C13.65 411.21 13.65 411.87 13.65 412.55 C11.09 414.85 10.17 415.55 6.65 415.55 C6.65 416.21 6.65 416.87 6.65 417.55 C-9.29 424.62 -25.42 427.84 -42.35 421.55 C-48.23 418.98 -54 416.12 -59.35 412.55 C-59.35 411.89 -59.35 411.23 -59.35 410.55 C-60.34 410.22 -61.33 409.89 -62.35 409.55 C-62.35 408.89 -62.35 408.23 -62.35 407.55 C-63.01 407.55 -63.67 407.55 -64.35 407.55 C-65.75 405.69 -67.07 403.76 -68.35 401.8 C-69.05 400.73 -69.75 399.67 -70.47 398.57 C-79.21 384.52 -77.75 368.5 -77.64 352.56 C-77.64 350.05 -77.63 347.53 -77.63 345.02 C-77.62 339.11 -77.59 333.2 -77.56 327.29 C-77.53 319.89 -77.51 312.48 -77.49 305.08 C-77.46 291.91 -77.41 278.73 -77.35 265.55 C-77.95 265.55 -78.55 265.56 -79.18 265.56 C-93.89 265.63 -108.61 265.68 -123.32 265.71 C-130.44 265.72 -137.56 265.74 -144.68 265.78 C-150.88 265.81 -157.09 265.83 -163.3 265.83 C-166.58 265.84 -169.86 265.85 -173.15 265.87 C-176.82 265.89 -180.5 265.89 -184.18 265.89 C-185.78 265.91 -185.78 265.91 -187.43 265.92 C-196.94 265.89 -205.54 264.15 -213.72 259.11 C-214.68 258.54 -215.64 257.96 -216.62 257.37 C-219.34 255.55 -221.9 253.72 -224.35 251.55 C-224.35 250.89 -224.35 250.23 -224.35 249.55 C-225.01 249.55 -225.67 249.55 -226.35 249.55 C-235.88 238.25 -239.75 225.8 -239.85 211.24 C-239.85 210.33 -239.86 209.42 -239.87 208.49 C-239.58 193.11 -232.92 181.33 -222.35 170.55 C-221.35 169.5 -221.35 169.5 -220.34 168.42 C-210.14 158.83 -195.19 156.23 -181.79 156.32 C-180.09 156.32 -180.09 156.32 -178.36 156.32 C-174.64 156.32 -170.91 156.34 -167.19 156.36 C-164.6 156.36 -162.01 156.36 -159.42 156.36 C-153.32 156.37 -147.21 156.39 -141.11 156.41 C-134.15 156.43 -127.2 156.44 -120.24 156.45 C-105.94 156.47 -91.65 156.51 -77.35 156.55 C-77.35 155.97 -77.35 155.4 -77.36 154.8 C-77.42 140.73 -77.47 126.66 -77.5 112.58 C-77.52 105.77 -77.54 98.97 -77.57 92.16 C-77.61 85.59 -77.62 79.01 -77.63 72.44 C-77.64 69.94 -77.65 67.43 -77.66 64.93 C-77.69 61.41 -77.69 57.9 -77.69 54.38 C-77.7 53.36 -77.71 52.33 -77.72 51.28 C-77.68 41.01 -75.65 31.54 -70.16 22.8 C-69.79 22.19 -69.42 21.57 -69.04 20.94 C-68.16 19.47 -67.26 18.01 -66.35 16.55 C-65.69 16.55 -65.03 16.55 -64.35 16.55 C-63.98 15.68 -63.98 15.68 -63.6 14.8 C-62.16 12.22 -60.56 10.49 -58.35 8.55 C-57.69 8.55 -57.03 8.55 -56.35 8.55 C-56.35 7.89 -56.35 7.23 -56.35 6.55 C-51.86 3.02 -46.64 0.61 -41.35 -1.45 C-40.54 -1.8 -39.73 -2.15 -38.89 -2.5 C-27.03 -5.67 -11.17 -5.32 0 0 Z " fill="#000000" transform="translate(1016.34765625,800.44921875)"/>
</svg>
